<?xml version="1.0" encoding="UTF-8" standalone="no"?>
<svg
   xmlns:dc="http://purl.org/dc/elements/1.1/"
   xmlns:cc="http://creativecommons.org/ns#"
   xmlns:rdf="http://www.w3.org/1999/02/22-rdf-syntax-ns#"
   xmlns:svg="http://www.w3.org/2000/svg"
   xmlns="http://www.w3.org/2000/svg"
   viewBox="0 0 400.1525 213.595"
   height="213.595"
   width="400.1525"
   xml:space="preserve"
   version="1.1"
   id="svg2"><metadata
     id="metadata8"><rdf:RDF><cc:Work
         rdf:about=""><dc:format>image/svg+xml</dc:format><dc:type
           rdf:resource="http://purl.org/dc/dcmitype/StillImage" /></cc:Work></rdf:RDF></metadata><defs
     id="defs6" /><g
     transform="matrix(1.25,0,0,-1.25,0,213.595)"
     id="g10"><g
       transform="translate(34.42,0.399)"
       id="g12"><g
         id="g14"><g
           id="g16"><g
             id="g18"><path
               id="path20"
               style="fill:none;stroke:#bfbfbf;stroke-width:0.79701;stroke-linecap:butt;stroke-linejoin:miter;stroke-miterlimit:10;stroke-dasharray:none;stroke-opacity:1"
               d="M 0,0 283.4681,0 M 0,28.3468 l 283.4681,0 M 0,56.69362 l 283.4681,0 M 0,85.04042 l 283.4681,0 M 0,113.38724 l 283.4681,0 M 0,141.73404 l 283.4681,0 M 0,170.07089 l 283.4681,0 M 0,0 0,170.08086 M 28.3468,0 l 0,170.08086 M 56.69362,0 l 0,170.08086 M 85.04042,0 l 0,170.08086 M 113.38724,0 l 0,170.08086 M 141.73404,0 l 0,170.08086 M 170.08086,0 l 0,170.08086 M 198.42766,0 l 0,170.08086 M 226.77448,0 l 0,170.08086 M 255.12128,0 l 0,170.08086 M 283.45813,0 l 0,170.08086" /></g><g
             id="g22"><g
               transform="translate(-31.1,152.447)"
               id="g24"><g
                 id="g26"><g
                   transform="translate(-3.32,-152.846)"
                   id="g28"><text
                     id="text30"
                     style="font-variant:normal;font-weight:normal;font-size:9.96259975px;font-family:SFSX1000;-inkscape-font-specification:SFSX1000;writing-mode:lr-tb;fill:#000000;fill-opacity:1;fill-rule:nonzero;stroke:none"
                     transform="matrix(1,0,0,-1,3.32,152.846)"><tspan
                       id="tspan32"
                       y="0"
                       x="0 10.347157 16.434305">WS1</tspan></text>
<g
                     transform="translate(3.32,152.846)"
                     id="g34" /></g></g><g
                 transform="translate(31.1,-152.447)"
                 id="g36" /></g></g><g
             id="g38"><path
               id="path40"
               style="fill:#73a1ec;fill-opacity:1;fill-rule:nonzero;stroke:none"
               d="m 1.4174,168.66342 0,-25.51196 53.85878,0 0,25.51196 -53.85878,0 z" /></g><g
             id="g42"><path
               id="path44"
               style="fill:#73a1ec;fill-opacity:1;fill-rule:nonzero;stroke:none"
               d="m 58.11102,168.66342 0,-25.51196 82.20558,0 0,25.51196 -82.20558,0 z" /></g><g
             id="g46"><path
               id="path48"
               style="fill:#73a1ec;fill-opacity:1;fill-rule:nonzero;stroke:none"
               d="m 143.15146,168.66342 0,-25.51196 82.20558,0 0,25.51196 -82.20558,0 z" /></g><g
             id="g50"><path
               id="path52"
               style="fill:#73a1ec;fill-opacity:1;fill-rule:nonzero;stroke:none"
               d="m 228.1919,168.66342 0,-25.51196 53.85876,0 0,25.51196 -53.85876,0 z" /></g><g
             id="g54"><g
               transform="translate(-26.84,124.1)"
               id="g56"><g
                 id="g58"><g
                   transform="translate(-7.58,-124.499)"
                   id="g60"><text
                     id="text62"
                     style="font-variant:normal;font-weight:normal;font-size:9.96259975px;font-family:SFSX1000;-inkscape-font-specification:SFSX1000;writing-mode:lr-tb;fill:#000000;fill-opacity:1;fill-rule:nonzero;stroke:none"
                     transform="matrix(1,0,0,-1,7.58,124.499)"><tspan
                       id="tspan64"
                       y="0"
                       x="0 6.0871487 12.174297">SS1</tspan></text>
<g
                     transform="translate(7.58,124.499)"
                     id="g66" /></g></g><g
                 transform="translate(26.84,-124.1)"
                 id="g68" /></g></g><g
             id="g70"><path
               id="path72"
               style="fill:#73a1ec;fill-opacity:1;fill-rule:nonzero;stroke:none"
               d="m 1.4174,140.3166 0,-25.51196 53.85878,0 0,25.51196 -53.85878,0 z" /></g><g
             id="g74"><path
               id="path76"
               style="fill:#73a1ec;fill-opacity:1;fill-rule:nonzero;stroke:none"
               d="m 58.11102,140.3166 0,-25.51196 82.20558,0 0,25.51196 -82.20558,0 z" /></g><g
             id="g78"><path
               id="path80"
               style="fill:#73a1ec;fill-opacity:1;fill-rule:nonzero;stroke:none"
               d="m 58.11102,144.5689 0,-5.66973 82.20558,0 0,5.66973 -82.20558,0 z" /></g><g
             id="g82"><path
               id="path84"
               style="fill:#ffff77;fill-opacity:1;fill-rule:nonzero;stroke:none"
               d="m 143.15146,140.3166 0,-25.51196 25.51196,0 0,25.51196 -25.51196,0 z" /></g><g
             id="g86"><path
               id="path88"
               style="fill:#ffff77;fill-opacity:1;fill-rule:nonzero;stroke:none"
               d="m 171.49828,140.3166 0,-25.51196 25.51194,0 0,25.51196 -25.51194,0 z" /></g><g
             id="g90"><path
               id="path92"
               style="fill:#73a1ec;fill-opacity:1;fill-rule:nonzero;stroke:none"
               d="m 199.84508,140.3166 0,-25.51196 82.20558,0 0,25.51196 -82.20558,0 z" /></g><g
             id="g94"><g
               transform="translate(-31.1,95.754)"
               id="g96"><g
                 id="g98"><g
                   transform="translate(-3.32,-96.153)"
                   id="g100"><text
                     id="text102"
                     style="font-variant:normal;font-weight:normal;font-size:9.96259975px;font-family:SFSX1000;-inkscape-font-specification:SFSX1000;writing-mode:lr-tb;fill:#000000;fill-opacity:1;fill-rule:nonzero;stroke:none"
                     transform="matrix(1,0,0,-1,3.32,96.153)"><tspan
                       id="tspan104"
                       y="0"
                       x="0 10.347157 16.434305">WS2</tspan></text>
<g
                     transform="translate(3.32,96.153)"
                     id="g106" /></g></g><g
                 transform="translate(31.1,-95.754)"
                 id="g108" /></g></g><g
             id="g110"><path
               id="path112"
               style="fill:#73a1ec;fill-opacity:1;fill-rule:nonzero;stroke:none"
               d="m 1.4174,111.9698 0,-25.51196 53.85878,0 0,25.51196 -53.85878,0 z" /></g><g
             id="g114"><path
               id="path116"
               style="fill:#eeeeee;fill-opacity:1;fill-rule:nonzero;stroke:none"
               d="m 58.11102,111.9698 0,-25.51196 223.93964,0 0,25.51196 -223.93964,0 z" /></g><g
             id="g118"><g
               transform="translate(-26.84,67.407)"
               id="g120"><g
                 id="g122"><g
                   transform="translate(-7.58,-67.806)"
                   id="g124"><text
                     id="text126"
                     style="font-variant:normal;font-weight:normal;font-size:9.96259975px;font-family:SFSX1000;-inkscape-font-specification:SFSX1000;writing-mode:lr-tb;fill:#000000;fill-opacity:1;fill-rule:nonzero;stroke:none"
                     transform="matrix(1,0,0,-1,7.58,67.806)"><tspan
                       id="tspan128"
                       y="0"
                       x="0 6.0871487 12.174297">SS2</tspan></text>
<g
                     transform="translate(7.58,67.806)"
                     id="g130" /></g></g><g
                 transform="translate(26.84,-67.407)"
                 id="g132" /></g></g><g
             id="g134"><path
               id="path136"
               style="fill:#ff9966;fill-opacity:1;fill-rule:nonzero;stroke:none"
               d="m 1.4174,83.62299 0,-25.51197 53.85878,0 0,25.51197 -53.85878,0 z" /></g><g
             id="g138"><path
               id="path140"
               style="fill:#eeeeee;fill-opacity:1;fill-rule:nonzero;stroke:none"
               d="m 58.11102,83.62299 0,-25.51197 223.93964,0 0,25.51197 -223.93964,0 z" /></g><g
             id="g142"><g
               transform="translate(-31.1,39.061)"
               id="g144"><g
                 id="g146"><g
                   transform="translate(-3.32,-39.46)"
                   id="g148"><text
                     id="text150"
                     style="font-variant:normal;font-weight:normal;font-size:9.96259975px;font-family:SFSX1000;-inkscape-font-specification:SFSX1000;writing-mode:lr-tb;fill:#000000;fill-opacity:1;fill-rule:nonzero;stroke:none"
                     transform="matrix(1,0,0,-1,3.32,39.46)"><tspan
                       id="tspan152"
                       y="0"
                       x="0 10.347157 16.434305">WS3</tspan></text>
<g
                     transform="translate(3.32,39.46)"
                     id="g154" /></g></g><g
                 transform="translate(31.1,-39.061)"
                 id="g156" /></g></g><g
             id="g158"><path
               id="path160"
               style="fill:#eeeeee;fill-opacity:1;fill-rule:nonzero;stroke:none"
               d="m 1.4174,55.27618 0,-25.51196 82.20559,0 0,25.51196 -82.20559,0 z" /></g><g
             id="g162"><path
               id="path164"
               style="fill:#dddddd;fill-opacity:1;fill-rule:nonzero;stroke:none"
               d="m 86.45784,55.27618 0,-25.51196 82.20558,0 0,25.51196 -82.20558,0 z" /></g><g
             id="g166"><path
               id="path168"
               style="fill:#ff9966;fill-opacity:1;fill-rule:nonzero;stroke:none"
               d="m 171.49828,55.27618 0,-25.51196 82.20556,0 0,25.51196 -82.20556,0 z" /></g><g
             id="g170"><path
               id="path172"
               style="fill:#ffff77;fill-opacity:1;fill-rule:nonzero;stroke:none"
               d="m 256.5387,55.27618 0,-25.51196 25.51196,0 0,25.51196 -25.51196,0 z" /></g><g
             id="g174"><g
               transform="translate(-26.84,10.714)"
               id="g176"><g
                 id="g178"><g
                   transform="translate(-7.58,-11.113)"
                   id="g180"><text
                     id="text182"
                     style="font-variant:normal;font-weight:normal;font-size:9.96259975px;font-family:SFSX1000;-inkscape-font-specification:SFSX1000;writing-mode:lr-tb;fill:#000000;fill-opacity:1;fill-rule:nonzero;stroke:none"
                     transform="matrix(1,0,0,-1,7.58,11.113)"><tspan
                       id="tspan184"
                       y="0"
                       x="0 6.0871487 12.174297">SS3</tspan></text>
<g
                     transform="translate(7.58,11.113)"
                     id="g186" /></g></g><g
                 transform="translate(26.84,-10.714)"
                 id="g188" /></g></g><g
             id="g190"><path
               id="path192"
               style="fill:#eeeeee;fill-opacity:1;fill-rule:nonzero;stroke:none"
               d="m 1.4174,26.92937 0,-25.51197 82.20559,0 0,25.51197 -82.20559,0 z" /></g><g
             id="g194"><path
               id="path196"
               style="fill:#dddddd;fill-opacity:1;fill-rule:nonzero;stroke:none"
               d="m 86.45784,26.92937 0,-25.51197 82.20558,0 0,25.51197 -82.20558,0 z" /></g><g
             id="g198"><path
               id="path200"
               style="fill:#0055aa;fill-opacity:1;fill-rule:nonzero;stroke:none"
               d="m 171.49828,26.92937 0,-25.51197 110.55238,0 0,25.51197 -110.55238,0 z" /></g><g
             id="g202"><g
               id="g204" /><g
               transform="translate(6.67,150.076)"
               id="g206"><g
                 id="g208"><g
                   transform="translate(-41.09,-150.475)"
                   id="g210"><text
                     id="text212"
                     style="font-variant:normal;font-weight:normal;font-size:6.97380018px;font-family:SFSX0700;-inkscape-font-specification:SFSX0700;writing-mode:lr-tb;fill:#000000;fill-opacity:1;fill-rule:nonzero;stroke:none"
                     transform="matrix(1,0,0,-1,47.331,158.445)"><tspan
                       id="tspan214"
                       y="0"
                       x="0 4.3635068 8.291151 10.691533 13.347156 18.433147 21.962589 24.617514 28.252956">Software-</tspan><tspan
                       id="tspan216"
                       y="7.9699998"
                       x="-6.2410002 -2.6055582 1.3946136 4.0502367 9.3593903 11.177461 14.668545 18.450436 20.268505 24.268677 28.268848 34.811668">entwicklungI</tspan></text>
<g
                     transform="translate(41.09,150.475)"
                     id="g218" /></g></g><g
                 transform="translate(-6.67,-150.076)"
                 id="g220" /></g></g><g
             id="g222"><g
               id="g224" /><g
               transform="translate(5.411,121.73)"
               id="g226"><g
                 id="g228"><g
                   transform="translate(-39.831,-122.129)"
                   id="g230"><text
                     id="text232"
                     style="font-variant:normal;font-weight:normal;font-size:6.97380018px;font-family:SFSX0700;-inkscape-font-specification:SFSX0700;writing-mode:lr-tb;fill:#000000;fill-opacity:1;fill-rule:nonzero;stroke:none"
                     transform="matrix(1,0,0,-1,47.331,130.099)"><tspan
                       id="tspan234"
                       y="0"
                       x="0 4.3635068 8.291151 10.691533 13.347156 18.433147 21.962589 24.617514 28.252956">Software-</tspan><tspan
                       id="tspan236"
                       y="7.9699998"
                       x="-7.5 -3.864558 0.13561362 2.7912366 8.1003904 9.9184599 13.409545 17.191437 19.009506 23.009678 27.00985 33.55267 36.074394">entwicklungII</tspan></text>
<g
                     transform="translate(39.831,122.129)"
                     id="g238" /></g></g><g
                 transform="translate(-5.411,-121.73)"
                 id="g240" /></g></g><g
             id="g242"><g
               id="g244" /><g
               transform="translate(52.936,135.228)"
               id="g246"><g
                 id="g248"><g
                   transform="translate(-87.356,-135.627)"
                   id="g250"><text
                     id="text252"
                     style="font-variant:normal;font-weight:normal;font-size:6.97380018px;font-family:SFSX0700;-inkscape-font-specification:SFSX0700;writing-mode:lr-tb;fill:#000000;fill-opacity:1;fill-rule:nonzero;stroke:none"
                     transform="matrix(1,0,0,-1,87.356,143.597)"><tspan
                       id="tspan254"
                       y="0"
                       x="0 6.9940238 10.739652 13.611463 17.611635 21.247076 27.42935 31.174978 34.046787 35.864861 42.261925 44.662308 48.662479 53.939552 58.303059 61.17487 65.175041 69.175217 70.993286 74.628723 77.283653 80.91909 84.919266 88.919434">MathematikfürStudierende</tspan><tspan
                       id="tspan256"
                       y="7.9699998"
                       x="23.091 27.091171 30.726614 35.996716 38.29528 42.295452 44.695831 48.407288 51.062214 57.244488 60.990116 63.861927 65.68">derInformatik</tspan></text>
<g
                     transform="translate(87.356,135.627)"
                     id="g258" /></g></g><g
                 transform="translate(-52.936,-135.228)"
                 id="g260" /></g></g><g
             id="g262"><g
               id="g264" /><g
               transform="translate(154.293,153.386)"
               id="g266"><g
                 id="g268"><g
                   transform="translate(-188.713,-153.785)"
                   id="g270"><text
                     id="text272"
                     style="font-variant:normal;font-weight:normal;font-size:6.97380018px;font-family:SFSX0700;-inkscape-font-specification:SFSX0700;writing-mode:lr-tb;fill:#000000;fill-opacity:1;fill-rule:nonzero;stroke:none"
                     transform="matrix(1,0,0,-1,188.713,153.785)"><tspan
                       id="tspan274"
                       y="0"
                       x="0 5.0197411 8.6551828 12.146268 16.146439 20.14661 23.782053 26.436979 29.448265 32.320076 34.975002 38.975174 42.757065 45.628876 49.629047 52.283974 55.919415">Rechnerstrukturen</tspan></text>
<g
                     transform="translate(188.713,153.785)"
                     id="g276" /></g></g><g
                 transform="translate(-154.293,-153.387)"
                 id="g278" /></g></g><g
             id="g280"><g
               id="g282" /><g
               transform="translate(233.077,149.402)"
               id="g284"><g
                 id="g286"><g
                   transform="translate(-267.497,-149.8)"
                   id="g288"><text
                     id="text290"
                     style="font-variant:normal;font-weight:normal;font-size:6.97380018px;font-family:SFSX0700;-inkscape-font-specification:SFSX0700;writing-mode:lr-tb;fill:#000000;fill-opacity:1;fill-rule:nonzero;stroke:none"
                     transform="matrix(1,0,0,-1,267.497,157.77)"><tspan
                       id="tspan292"
                       y="0"
                       x="0 2.2985644 6.2987361 8.6991177 12.410575 15.0655 21.247774 24.993402 27.865213 29.683283 36.080349 37.898418">Informatikim</tspan><tspan
                       id="tspan294"
                       y="7.9699998"
                       x="8.9840002 14.23039 18.158033 22.158205 25.030016 28.665459 32.229069">Kontext</tspan></text>
<g
                     transform="translate(267.497,149.8)"
                     id="g296" /></g></g><g
                 transform="translate(-233.077,-149.402)"
                 id="g298" /></g></g><g
             id="g300"><g
               id="g302" /><g
               transform="translate(145.978,121.731)"
               id="g304"><g
                 id="g306"><g
                   transform="translate(-180.398,-122.129)"
                   id="g308"><text
                     id="text310"
                     style="font-variant:normal;font-weight:normal;font-size:6.97380018px;font-family:SFSX0700;-inkscape-font-specification:SFSX0700;writing-mode:lr-tb;fill:#000000;fill-opacity:1;fill-rule:nonzero;stroke:none"
                     transform="matrix(1,0,0,-1,180.484,130.099)"><tspan
                       id="tspan312"
                       y="0"
                       x="0 6.9940238 10.629466 13.501277 17.501448">Meth.</tspan><tspan
                       id="tspan314"
                       y="7.9699998"
                       x="-0.086000003 3.4797039 7.4073482 13.589622 17.589794">komp.</tspan></text>
<g
                     transform="translate(180.398,122.129)"
                     id="g316" /></g></g><g
                 transform="translate(-145.978,-121.731)"
                 id="g318" /></g></g><g
             id="g320"><g
               id="g322" /><g
               transform="translate(171.837,121.154)"
               id="g324"><g
                 id="g326"><g
                   transform="translate(-206.257,-121.552)"
                   id="g328"><text
                     id="text330"
                     style="font-variant:normal;font-weight:normal;font-size:6.97380018px;font-family:SFSX0700;-inkscape-font-specification:SFSX0700;writing-mode:lr-tb;fill:#000000;fill-opacity:1;fill-rule:nonzero;stroke:none"
                     transform="matrix(1,0,0,-1,211.561,129.522)"><tspan
                       id="tspan332"
                       y="0"
                       x="0 5.0218334 7.6767592 11.604403">Pro-</tspan><tspan
                       id="tspan334"
                       y="7.9699998"
                       x="-5.303 -2.2917132 1.3437288 7.5260024 9.3440723 13.344244 16.873684">seminar</tspan></text>
<g
                     transform="translate(206.257,121.552)"
                     id="g336" /></g></g><g
                 transform="translate(-171.837,-121.153)"
                 id="g338" /></g></g><g
             id="g340"><g
               id="g342" /><g
               transform="translate(208.181,121.055)"
               id="g344"><g
                 id="g346"><g
                   transform="translate(-242.601,-121.454)"
                   id="g348"><text
                     id="text350"
                     style="font-variant:normal;font-weight:normal;font-size:6.97380018px;font-family:SFSX0700;-inkscape-font-specification:SFSX0700;writing-mode:lr-tb;fill:#000000;fill-opacity:1;fill-rule:nonzero;stroke:none"
                     transform="matrix(1,0,0,-1,242.601,129.424)"><tspan
                       id="tspan352"
                       y="0"
                       x="0 4.1473188 7.8518014 10.506727 16.689001 20.434629 22.252699 28.510288 33.746914 36.40184 40.402012 44.402184 48.402355 50.220425 53.966053 57.8937 61.52914">FormaleGrundlagen</tspan><tspan
                       id="tspan354"
                       y="7.9699998"
                       x="7.1199999 11.120172 14.755613 20.025715 22.324278 26.32445 28.724833 32.436287 35.091213 41.273487 45.019115 47.890926 49.708996 56.113037">derInformatikI</tspan></text>
<g
                     transform="translate(242.601,121.454)"
                     id="g356" /></g></g><g
                 transform="translate(-208.181,-121.055)"
                 id="g358" /></g></g><g
             id="g360"><g
               id="g362" /><g
               transform="translate(1.641,92.709)"
               id="g364"><g
                 id="g366"><g
                   transform="translate(-36.061,-93.108)"
                   id="g368"><text
                     id="text370"
                     style="font-variant:normal;font-weight:normal;font-size:6.97380018px;font-family:SFSX0700;-inkscape-font-specification:SFSX0700;writing-mode:lr-tb;fill:#000000;fill-opacity:1;fill-rule:nonzero;stroke:none"
                     transform="matrix(1,0,0,-1,38.563,101.078)"><tspan
                       id="tspan372"
                       y="0"
                       x="0 5.2442975 7.0623674 10.990011 14.701468 17.356394 19.174463 22.046274 26.046446 32.228718 35.864162 42.479507">Algorithmen&amp;</tspan><tspan
                       id="tspan374"
                       y="7.9699998"
                       x="-2.5020001 3.1746733 6.920301 9.7921124 13.427554 17.427725 20.439013 23.310823 25.96575 29.965921 33.747814 36.619625 40.619797 43.274719 46.910164">Datenstrukturen</tspan></text>
<g
                     transform="translate(36.061,93.108)"
                     id="g376" /></g></g><g
                 transform="translate(-1.641,-92.709)"
                 id="g378" /></g></g><g
             id="g380"><g
               id="g382" /><g
               transform="translate(140.382,97.369)"
               id="g384"><g
                 id="g386"><g
                   transform="translate(-174.802,-97.768)"
                   id="g388"><text
                     id="text390"
                     style="font-variant:normal;font-weight:normal;font-size:6.97380018px;font-family:SFSX0700;-inkscape-font-specification:SFSX0700;writing-mode:lr-tb;fill:#000000;fill-opacity:1;fill-rule:nonzero;stroke:none"
                     transform="matrix(1,0,0,-1,174.802,97.768)"><tspan
                       id="tspan392"
                       y="0"
                       x="0 7.2095146 10.955142 14.955314 16.773384 20.773556 24.955744 26.773813 30.264896 34.265068 39.752056 43.679699 50.229492 54.374718">Wahlpficht24LP</tspan></text>
<g
                     transform="translate(174.802,97.768)"
                     id="g394" /></g></g><g
                 transform="translate(-140.382,-97.369)"
                 id="g396" /></g></g><g
             id="g398"><g
               id="g400" /><g
               transform="translate(11.417,68.347)"
               id="g402"><g
                 id="g404"><g
                   transform="translate(-45.837,-68.746)"
                   id="g406"><text
                     id="text408"
                     style="font-variant:normal;font-weight:normal;font-size:6.97380018px;font-family:SFSX0700;-inkscape-font-specification:SFSX0700;writing-mode:lr-tb;fill:#000000;fill-opacity:1;fill-rule:nonzero;stroke:none"
                     transform="matrix(1,0,0,-1,45.837,68.746)"><tspan
                       id="tspan410"
                       y="0"
                       x="0 5.0218334 7.6767592 11.422387 15.204279 18.07609 19.894159 23.67605 27.676222">Praktikum</tspan></text>
<g
                     transform="translate(45.837,68.746)"
                     id="g412" /></g></g><g
                 transform="translate(-11.417,-68.347)"
                 id="g414" /></g></g><g
             id="g416"><g
               id="g418" /><g
               transform="translate(140.382,69.022)"
               id="g420"><g
                 id="g422"><g
                   transform="translate(-174.802,-69.421)"
                   id="g424"><text
                     id="text426"
                     style="font-variant:normal;font-weight:normal;font-size:6.97380018px;font-family:SFSX0700;-inkscape-font-specification:SFSX0700;writing-mode:lr-tb;fill:#000000;fill-opacity:1;fill-rule:nonzero;stroke:none"
                     transform="matrix(1,0,0,-1,174.802,69.421)"><tspan
                       id="tspan428"
                       y="0"
                       x="0 7.2095146 10.955142 14.955314 16.773384 20.773556 24.955744 26.773813 30.264896 34.265068 39.752056 43.679699 50.229492 54.374718">Wahlpficht24LP</tspan></text>
<g
                     transform="translate(174.802,69.421)"
                     id="g430" /></g></g><g
                 transform="translate(-140.382,-69.022)"
                 id="g432" /></g></g><g
             id="g434"><g
               id="g436" /><g
               transform="translate(14.787,40.676)"
               id="g438"><g
                 id="g440"><g
                   transform="translate(-49.207,-41.075)"
                   id="g442"><text
                     id="text444"
                     style="font-variant:normal;font-weight:normal;font-size:6.97380018px;font-family:SFSX0700;-inkscape-font-specification:SFSX0700;writing-mode:lr-tb;fill:#000000;fill-opacity:1;fill-rule:nonzero;stroke:none"
                     transform="matrix(1,0,0,-1,49.207,41.075)"><tspan
                       id="tspan446"
                       y="0"
                       x="0 7.2095146 10.955142 14.955314 16.773384 20.773556 24.955744 26.773813 30.264896 34.265068 39.752056 46.301849 50.447075">Wahlpficht9LP</tspan></text>
<g
                     transform="translate(49.207,41.075)"
                     id="g448" /></g></g><g
                 transform="translate(-14.787,-40.676)"
                 id="g450" /></g></g><g
             id="g452"><g
               id="g454" /><g
               transform="translate(119.173,40.001)"
               id="g456"><g
                 id="g458"><g
                   transform="translate(-153.593,-40.4)"
                   id="g460"><text
                     id="text462"
                     style="font-variant:normal;font-weight:normal;font-size:6.97380018px;font-family:SFSX0700;-inkscape-font-specification:SFSX0700;writing-mode:lr-tb;fill:#000000;fill-opacity:1;fill-rule:nonzero;stroke:none"
                     transform="matrix(1,0,0,-1,153.593,40.4)"><tspan
                       id="tspan464"
                       y="0"
                       x="0 7.2095146 10.955142 14.955314">Wahl</tspan></text>
<g
                     transform="translate(153.593,40.4)"
                     id="g466" /></g></g><g
                 transform="translate(-119.173,-40.001)"
                 id="g468" /></g></g><g
             id="g470"><g
               id="g472" /><g
               transform="translate(200.634,40.676)"
               id="g474"><g
                 id="g476"><g
                   transform="translate(-235.054,-41.075)"
                   id="g478"><text
                     id="text480"
                     style="font-variant:normal;font-weight:normal;font-size:6.97380018px;font-family:SFSX0700;-inkscape-font-specification:SFSX0700;writing-mode:lr-tb;fill:#000000;fill-opacity:1;fill-rule:nonzero;stroke:none"
                     transform="matrix(1,0,0,-1,235.054,41.075)"><tspan
                       id="tspan482"
                       y="0"
                       x="0 5.0218334 7.6767592 11.604403 13.640753 17.276196 21.058086">Projekt</tspan></text>
<g
                     transform="translate(235.054,41.075)"
                     id="g484" /></g></g><g
                 transform="translate(-200.634,-40.676)"
                 id="g486" /></g></g><g
             id="g488"><g
               id="g490" /><g
               transform="translate(256.2,40.001)"
               id="g492"><g
                 id="g494"><g
                   transform="translate(-290.62,-40.4)"
                   id="g496"><text
                     id="text498"
                     style="font-variant:normal;font-weight:normal;font-size:6.97380018px;font-family:SFSX0700;-inkscape-font-specification:SFSX0700;writing-mode:lr-tb;fill:#000000;fill-opacity:1;fill-rule:nonzero;stroke:none"
                     transform="matrix(1,0,0,-1,290.62,40.4)"><tspan
                       id="tspan500"
                       y="0"
                       x="0 4.3635068 7.9989486 14.181222 15.999292 19.999464 23.528904">Seminar</tspan></text>
<g
                     transform="translate(290.62,40.4)"
                     id="g502" /></g></g><g
                 transform="translate(-256.2,-40.001)"
                 id="g504" /></g></g><g
             id="g506"><g
               id="g508" /><g
               transform="translate(14.787,12.329)"
               id="g510"><g
                 id="g512"><g
                   transform="translate(-49.207,-12.728)"
                   id="g514"><text
                     id="text516"
                     style="font-variant:normal;font-weight:normal;font-size:6.97380018px;font-family:SFSX0700;-inkscape-font-specification:SFSX0700;writing-mode:lr-tb;fill:#000000;fill-opacity:1;fill-rule:nonzero;stroke:none"
                     transform="matrix(1,0,0,-1,49.207,12.728)"><tspan
                       id="tspan518"
                       y="0"
                       x="0 7.2095146 10.955142 14.955314 16.773384 20.773556 24.955744 26.773813 30.264896 34.265068 39.752056 46.301849 50.447075">Wahlpficht9LP</tspan></text>
<g
                     transform="translate(49.207,12.728)"
                     id="g520" /></g></g><g
                 transform="translate(-14.787,-12.329)"
                 id="g522" /></g></g><g
             id="g524"><g
               id="g526" /><g
               transform="translate(119.173,11.654)"
               id="g528"><g
                 id="g530"><g
                   transform="translate(-153.593,-12.053)"
                   id="g532"><text
                     id="text534"
                     style="font-variant:normal;font-weight:normal;font-size:6.97380018px;font-family:SFSX0700;-inkscape-font-specification:SFSX0700;writing-mode:lr-tb;fill:#000000;fill-opacity:1;fill-rule:nonzero;stroke:none"
                     transform="matrix(1,0,0,-1,153.593,12.053)"><tspan
                       id="tspan536"
                       y="0"
                       x="0 7.2095146 10.955142 14.955314">Wahl</tspan></text>
<g
                     transform="translate(153.593,12.053)"
                     id="g538" /></g></g><g
                 transform="translate(-119.173,-11.654)"
                 id="g540" /></g></g><g
             id="g542"><g
               id="g544" /><g
               transform="translate(200.207,8.547)"
               id="g546"><g
                 id="g548"><g
                   transform="translate(-234.627,-8.946)"
                   id="g550"><text
                     id="text552"
                     style="font-variant:normal;font-weight:normal;font-size:6.97380018px;font-family:SFSX0700;-inkscape-font-specification:SFSX0700;writing-mode:lr-tb;fill:#000000;fill-opacity:1;fill-rule:nonzero;stroke:none"
                     transform="matrix(1,0,0,-1,235.325,16.916)"><tspan
                       id="tspan554"
                       y="0"
                       x="0 5.2442975 9.2444696 12.255756 15.74684 19.747011 21.565083 25.565254 28.57654 31.587828 37.7701 41.913933 45.914104 49.914276">Abschlussmodul</tspan><tspan
                       id="tspan556"
                       y="7.9699998"
                       x="-0.69800001 2.3565245 7.5966377 11.342266 14.83335 18.833521 22.468964 24.287033 27.998489 30.653416 34.17588 36.830807 41.054142 44.689583 46.507652 49.379463">(Bachelorarbeit)</tspan></text>
<g
                     transform="translate(234.627,8.946)"
                     id="g558" /></g></g><g
                 transform="translate(-200.207,-8.547)"
                 id="g560" /></g></g></g></g></g></g></svg>